<svg xmlns="http://www.w3.org/2000/svg" width="96" height="96" viewBox="0 0 192 192" data-level="8" data-wgf-off-palette="lamp and window light are the riso third ink (sunflower)">
<defs><pattern id="dots" width="6" height="6" patternUnits="userSpaceOnUse"><circle cx="3.0" cy="3.0" r="1.4" fill="#1C1A17"/></pattern><pattern id="pinkdots" width="5" height="5" patternUnits="userSpaceOnUse"><circle cx="2.5" cy="2.5" r="1.5" fill="#FF48B0"/></pattern></defs>
<ellipse cx="96" cy="184" rx="66" ry="6" fill="url(#dots)"/><path d="M38 184H154" stroke="#1C1A17" stroke-width="4" stroke-linecap="round"/><path d="M96 40L184.0 40.0" stroke="#FF7AC6" stroke-width="6" stroke-linecap="round"/><path d="M96 40L8.0 40.0" stroke="#FF7AC6" stroke-width="6" stroke-linecap="round"/><path d="M96 40L157.6 -21.6" stroke="#FF7AC6" stroke-width="6" stroke-linecap="round"/><path d="M96 40L34.4 -21.6" stroke="#FF7AC6" stroke-width="6" stroke-linecap="round"/><path d="M96 40L177.0 73.4" stroke="#FF7AC6" stroke-width="6" stroke-linecap="round"/><path d="M96 40L15.0 73.4" stroke="#FF7AC6" stroke-width="6" stroke-linecap="round"/><path d="M96 40L129.4 -41.0" stroke="#FF7AC6" stroke-width="6" stroke-linecap="round"/><path d="M96 40L62.6 -41.0" stroke="#FF7AC6" stroke-width="6" stroke-linecap="round"/><circle cx="96" cy="40" r="30" fill="url(#pinkdots)"/><path d="M58 150h76v34h-76Z" fill="#0078BF" transform="translate(4 3)" opacity="0.9"/><path d="M58 150h76v34h-76Z" fill="#FF48B0" stroke="#1C1A17" stroke-width="5" stroke-linejoin="round" stroke-linecap="round"/><path d="M44 150L148 150L136 136L56 136Z" fill="#6C3C9E" transform="translate(4 3)" opacity="0.9"/><path d="M44 150L148 150L136 136L56 136Z" fill="#E3350D" stroke="#1C1A17" stroke-width="5" stroke-linejoin="round" stroke-linecap="round"/><path d="M66 112h60v26h-60Z" fill="#FF48B0" transform="translate(4 3)" opacity="0.9"/><path d="M66 112h60v26h-60Z" fill="#0078BF" stroke="#1C1A17" stroke-width="5" stroke-linejoin="round" stroke-linecap="round"/><path d="M52 112L140 112L128 98L64 98Z" fill="#6C3C9E" transform="translate(4 3)" opacity="0.9"/><path d="M52 112L140 112L128 98L64 98Z" fill="#E3350D" stroke="#1C1A17" stroke-width="5" stroke-linejoin="round" stroke-linecap="round"/><path d="M74 76h44v24h-44Z" fill="#FF48B0" transform="translate(4 3)" opacity="0.9"/><path d="M74 76h44v24h-44Z" fill="#6C3C9E" stroke="#1C1A17" stroke-width="5" stroke-linejoin="round" stroke-linecap="round"/><path d="M60 76L132 76L120 62L72 62Z" fill="#6C3C9E" transform="translate(4 3)" opacity="0.9"/><path d="M60 76L132 76L120 62L72 62Z" fill="#E3350D" stroke="#1C1A17" stroke-width="5" stroke-linejoin="round" stroke-linecap="round"/><path d="M112 150h22v34h-22Z" fill="url(#dots)" opacity="0.55"/><path d="M108 112h18v26h-18Z" fill="url(#dots)" opacity="0.55"/><path d="M86 184v-20a10 10 0 0 1 20 0v20Z" fill="#FFD23F" stroke="#1C1A17" stroke-width="4" stroke-linejoin="round" stroke-linecap="round"/><circle cx="96" cy="124" r="6" fill="#FFD23F" stroke="#1C1A17" stroke-width="3"/><circle cx="96" cy="88" r="5" fill="#FFD23F" stroke="#1C1A17" stroke-width="3"/><path d="M96 14L102 30L119 30L105 40L110 56L96 46L82 56L87 40L73 30L90 30Z" fill="#0078BF" transform="translate(3 3)" opacity="0.9"/><path d="M96 14L102 30L119 30L105 40L110 56L96 46L82 56L87 40L73 30L90 30Z" fill="#FFD23F" stroke="#1C1A17" stroke-width="4" stroke-linejoin="round" stroke-linecap="round"/>
</svg>
