<svg xmlns="http://www.w3.org/2000/svg" width="96" height="96" viewBox="0 0 192 192" data-level="7" data-wgf-off-palette="lamp and window light are the riso third ink (sunflower)">
<defs><pattern id="dots" width="6" height="6" patternUnits="userSpaceOnUse"><circle cx="3.0" cy="3.0" r="1.4" fill="#1C1A17"/></pattern><pattern id="pinkdots" width="5" height="5" patternUnits="userSpaceOnUse"><circle cx="2.5" cy="2.5" r="1.5" fill="#FF48B0"/></pattern></defs>
<ellipse cx="96" cy="184" rx="58" ry="6" fill="url(#dots)"/><path d="M46 184H146" stroke="#1C1A17" stroke-width="4" stroke-linecap="round"/><path d="M60 96h72v88h-72Z" fill="#FF48B0" transform="translate(4 3)" opacity="0.9"/><path d="M60 96h72v88h-72Z" fill="#6C3C9E" stroke="#1C1A17" stroke-width="5" stroke-linejoin="round" stroke-linecap="round"/><path d="M70 58h52v40h-52Z" fill="#0078BF" transform="translate(4 3)" opacity="0.9"/><path d="M70 58h52v40h-52Z" fill="#6C3C9E" stroke="#1C1A17" stroke-width="5" stroke-linejoin="round" stroke-linecap="round"/><path d="M80 32h32v28h-32Z" fill="#FF48B0" transform="translate(4 3)" opacity="0.9"/><path d="M80 32h32v28h-32Z" fill="#0078BF" stroke="#1C1A17" stroke-width="5" stroke-linejoin="round" stroke-linecap="round"/><path d="M68 106h8v8h-8Z" fill="#FFD23F"/><path d="M84 106h8v8h-8Z" fill="#2E92D2"/><path d="M100 106h8v8h-8Z" fill="#2E92D2"/><path d="M116 106h8v8h-8Z" fill="#2E92D2"/><path d="M68 120h8v8h-8Z" fill="#2E92D2"/><path d="M84 120h8v8h-8Z" fill="#FFD23F"/><path d="M100 120h8v8h-8Z" fill="#2E92D2"/><path d="M116 120h8v8h-8Z" fill="#2E92D2"/><path d="M68 134h8v8h-8Z" fill="#2E92D2"/><path d="M84 134h8v8h-8Z" fill="#2E92D2"/><path d="M100 134h8v8h-8Z" fill="#FFD23F"/><path d="M116 134h8v8h-8Z" fill="#2E92D2"/><path d="M68 148h8v8h-8Z" fill="#2E92D2"/><path d="M84 148h8v8h-8Z" fill="#2E92D2"/><path d="M100 148h8v8h-8Z" fill="#2E92D2"/><path d="M116 148h8v8h-8Z" fill="#FFD23F"/><path d="M68 162h8v8h-8Z" fill="#FFD23F"/><path d="M84 162h8v8h-8Z" fill="#2E92D2"/><path d="M100 162h8v8h-8Z" fill="#2E92D2"/><path d="M116 162h8v8h-8Z" fill="#2E92D2"/><path d="M78 66h8v8h-8Z" fill="#2E92D2"/><path d="M92 66h8v8h-8Z" fill="#FFD23F"/><path d="M106 66h8v8h-8Z" fill="#2E92D2"/><path d="M78 80h8v8h-8Z" fill="#FFD23F"/><path d="M92 80h8v8h-8Z" fill="#2E92D2"/><path d="M106 80h8v8h-8Z" fill="#FFD23F"/><path d="M112 96h20v88h-20Z" fill="url(#dots)" opacity="0.55"/><path d="M96 32L96 8" fill="none" stroke="#1C1A17" stroke-width="4" stroke-linecap="round"/><circle cx="96" cy="8" r="5" fill="#FF48B0" stroke="#1C1A17" stroke-width="3"/><path d="M86 46L106 46" fill="none" stroke="#1C1A17" stroke-width="3" stroke-linecap="round"/><path d="M84 184v-16h24v16Z" fill="#FF48B0" stroke="#1C1A17" stroke-width="4" stroke-linejoin="round" stroke-linecap="round"/>
</svg>
