<svg xmlns="http://www.w3.org/2000/svg" width="144" height="144" viewBox="0 0 144 144" data-slice="40">
<defs><pattern id="dots" width="5" height="5" patternUnits="userSpaceOnUse"><circle cx="2.5" cy="2.5" r="1.3" fill="#1C1A17"/></pattern></defs>
<path d="M10 10h128v128H10Z" fill="#1C1A17"/><path d="M4 4h128v128H4Z" fill="#F4EDE1" stroke="#1C1A17" stroke-width="6" stroke-linejoin="round" stroke-linecap="round"/><path d="M18 18h100v100H18Z" fill="#E4D9C6" stroke="#1C1A17" stroke-width="4" stroke-linejoin="round" stroke-linecap="round"/><path d="M4 4h36v36H4ZM104 4h28v36h-28ZM4 104h36v28H4ZM104 104h28v28h-28Z" fill="url(#dots)" opacity="0.35"/><path d="M12 11L124 11" fill="none" stroke="#FF48B0" stroke-width="3" stroke-linecap="round"/><path d="M12 125L124 125" fill="none" stroke="#0078BF" stroke-width="3" stroke-linecap="round"/><path d="M11 12L11 124" fill="none" stroke="#FF48B0" stroke-width="3" stroke-linecap="round"/><path d="M125 12L125 124" fill="none" stroke="#0078BF" stroke-width="3" stroke-linecap="round"/><circle cx="11" cy="11" r="4" fill="#0078BF" stroke="#1C1A17" stroke-width="2.5"/><circle cx="125" cy="11" r="4" fill="#0078BF" stroke="#1C1A17" stroke-width="2.5"/><circle cx="11" cy="125" r="4" fill="#FF48B0" stroke="#1C1A17" stroke-width="2.5"/><circle cx="125" cy="125" r="4" fill="#FF48B0" stroke="#1C1A17" stroke-width="2.5"/>
</svg>
